<svg width="20" height="18" viewBox="0 0 20 18" fill="none" xmlns="http://www.w3.org/2000/svg">
<path fill-rule="evenodd" clip-rule="evenodd" d="M5.4939 0H3.41421C2.50871 0 1.64029 0.359711 1 1C0.359711 1.64029 0 2.50871 0 3.41421V4.62042C0 4.83006 0.169942 5 0.379576 5H2V3.46597C2 3.00094 2.20697 2.54924 2.58982 2.2661C2.99107 1.96934 3.56791 1.88745 4.07625 2.19161L5.66578 3.14267C5.77532 3.104 5.88702 3.07318 6 3.05023V0.506101C6 0.226589 5.77341 0 5.4939 0ZM7.28035 4.34024C7.35369 4.3897 7.42336 4.44687 7.48825 4.51175C7.63168 4.65518 7.73742 4.82204 7.80547 5C7.9283 5.32126 7.9283 5.67874 7.80547 6C7.77972 6.06733 7.74858 6.13307 7.71204 6.19656C7.65201 6.30087 7.57741 6.39908 7.48825 6.48825C7.34482 6.63168 7.17796 6.73742 7 6.80547C6.67874 6.9283 6.32126 6.9283 6 6.80547C5.82204 6.73742 5.65518 6.63168 5.51175 6.48825L5.49926 6.4756C5.49242 6.46858 5.48566 6.46151 5.479 6.45439C5.40417 6.37443 5.34049 6.28783 5.28796 6.19656C5.25594 6.14094 5.22807 6.08358 5.20435 6.02494L5.19454 6.00002L7.28035 4.34024ZM7.28035 4.34024L5.19453 6C5.0717 5.67874 5.0717 5.32126 5.19453 5C5.26258 4.82204 5.36832 4.65518 5.51175 4.51175C5.57664 4.44687 5.64632 4.38969 5.71965 4.34024C6.18982 4.02313 6.81018 4.02313 7.28035 4.34024ZM4.72151 3.74302L3.56281 3.04973C3.30424 2.89502 3 3.12002 3 3.46597V5L3 5.8399C3 5.89656 3.00833 5.9504 3.02348 6C3.08926 6.21545 3.2837 6.35107 3.48321 6.29138L3.6578 6.26435L4.0984 6.19614C4.07967 6.13131 4.06361 6.06587 4.05023 6C3.98326 5.6703 3.98326 5.3297 4.05023 5C4.14366 4.54007 4.36742 4.10136 4.72151 3.74302ZM2.00823 6H0.460603C0.206219 6 0 6.20622 0 6.4606V14.5858C0 15.4913 0.359711 16.3597 1 17C1.64029 17.6403 2.50871 18 3.41421 18H5.4939C5.77341 18 6 17.7734 6 17.4939V8.94846L4.52422 10.3659C4.1618 10.9083 3.41363 11.2393 2.69428 10.8089L1.85425 10.3063C1.14351 9.88102 1.00444 8.99234 1.30157 8.37012L1.39431 8.17589L1.55875 8.03702L2.67279 7.0962C2.59824 7.04914 2.52923 6.99568 2.46686 6.9374C2.20133 6.68931 2.04464 6.35312 2.00823 6ZM7 8.94845V17.5C7 17.7761 7.22386 18 7.5 18H10H16.5858C17.4913 18 18.3597 17.6403 19 17C19.6403 16.3597 20 15.4913 20 14.5858V10V6.5C20 6.22386 19.7761 6 19.5 6H10.9918C10.9554 6.35312 10.7987 6.68931 10.5331 6.9374C10.4708 6.99568 10.4018 7.04914 10.3272 7.0962L11.4413 8.03702L11.6057 8.17589L11.6984 8.37012C11.9956 8.99234 11.8565 9.88101 11.1458 10.3063L10.3057 10.8089C9.58637 11.2393 8.83821 10.9083 8.47578 10.3659L7 8.94845ZM8.94977 5C8.85634 4.54007 8.63258 4.10136 8.27849 3.74302L9.4372 3.04973C9.69577 2.89502 10 3.12002 10 3.46597V5V5.8399C10 5.89656 9.99168 5.9504 9.97653 6C9.91074 6.21545 9.71631 6.35107 9.51679 6.29138L9.3422 6.26435L8.9016 6.19614C8.92033 6.13131 8.93639 6.06587 8.94977 6C9.01674 5.6703 9.01674 5.3297 8.94977 5ZM11 5V3.46597C11 3.00094 10.793 2.54924 10.4102 2.2661C10.0089 1.96934 9.43209 1.88745 8.92376 2.19161L7.33422 3.14268C7.22468 3.104 7.11298 3.07318 7 3.05023V0.5C7 0.223858 7.22386 0 7.5 0H10H16.5858C17.4913 0 18.3597 0.359711 19 1C19.6403 1.64029 20 2.50871 20 3.41421V4.51438C20 4.78258 19.7826 5 19.5144 5H11ZM8.562 6.91435L8.91161 7.2096L10.796 8.80103C10.9068 9.03299 10.832 9.32867 10.6323 9.44815L9.79228 9.95077C9.61218 10.0585 9.39562 9.98337 9.29011 9.78413C9.28307 9.77085 9.27653 9.75702 9.27053 9.74265L7.31466 7.86414C7.66286 7.74444 7.98988 7.54565 8.26777 7.26777C8.37837 7.15716 8.47645 7.03877 8.562 6.91435ZM5.68534 7.86414L3.72948 9.74265C3.63342 9.97253 3.39983 10.0657 3.20773 9.95077L2.3677 9.44815C2.16801 9.32867 2.0932 9.03299 2.20396 8.80103L4.08839 7.2096L4.438 6.91435C4.52355 7.03877 4.62163 7.15716 4.73223 7.26777C5.01012 7.54565 5.33715 7.74444 5.68534 7.86414ZM15.5 12C15.5 11.7239 15.2761 11.5 15 11.5C14.7239 11.5 14.5 11.7239 14.5 12V13.5H13C12.7239 13.5 12.5 13.7239 12.5 14C12.5 14.2761 12.7239 14.5 13 14.5C13.7223 14.5 14.0447 14.6268 14.2089 14.7911C14.3732 14.9553 14.5 15.2777 14.5 16C14.5 16.2761 14.7239 16.5 15 16.5C15.2761 16.5 15.5 16.2761 15.5 16V14.5H17C17.2761 14.5 17.5 14.2761 17.5 14C17.5 13.7239 17.2761 13.5 17 13.5C16.2777 13.5 15.9553 13.3732 15.7911 13.2089C15.6268 13.0447 15.5 12.7223 15.5 12ZM17.5 12C17.7761 12 18 11.7761 18 11.5C18 11.2239 17.7761 11 17.5 11C17.2239 11 17 11.2239 17 11.5C17 11.7761 17.2239 12 17.5 12Z" fill="white"/>
</svg>
