<svg xmlns="http://www.w3.org/2000/svg" width="20" height="14" fill="none" viewBox="0 0 20 14">
  <path fill="#fff" fill-rule="evenodd" d="M5.494 0h-2.08A3.414 3.414 0 0 0 0 3.414V4.62c0 .21.17.38.38.38H2V3.466c0-.465.207-.917.59-1.2a1.331 1.331 0 0 1 1.486-.074l1.59.95c.11-.038.221-.069.334-.092V.506A.506.506 0 0 0 5.494 0ZM7 4.535a.413.413 0 0 1 .103-.09l.108-.064.068-.04A1.405 1.405 0 0 1 7.805 5H7.5a.5.5 0 0 1-.499-.465ZM5.72 4.34l.068.041.108.065a.38.38 0 0 1 .104.09V5h-.805a1.393 1.393 0 0 1 .525-.66Zm-.998-.597-1.16-.693C3.305 2.895 3 3.12 3 3.466V5h1.05c.094-.46.317-.899.672-1.257ZM2.008 6H.276A.276.276 0 0 0 0 6.276v4.31A3.414 3.414 0 0 0 3.414 14h2.08c.28 0 .506-.227.506-.506V8.948l-1.476 1.418c-.362.542-1.11.873-1.83.443l-.84-.503c-.71-.425-.85-1.314-.552-1.936l.092-.194.165-.139 1.114-.94a1.384 1.384 0 0 1-.206-.16A1.488 1.488 0 0 1 2.008 6ZM7 8.948V13.5a.5.5 0 0 0 .5.5h9.086A3.414 3.414 0 0 0 20 10.586V6.5a.5.5 0 0 0-.5-.5h-8.508c-.037.353-.193.69-.459.937a1.378 1.378 0 0 1-.206.16l1.114.94.165.139.092.194c.298.622.159 1.511-.552 1.936l-.84.503c-.72.43-1.468.1-1.83-.443L7 8.948ZM10 5H8.95a2.488 2.488 0 0 0-.672-1.257l1.16-.693c.258-.155.562.07.562.416V5Zm1 0V3.466c0-.465-.207-.917-.59-1.2a1.331 1.331 0 0 0-1.486-.074l-1.59.95A2.496 2.496 0 0 0 7 3.05V.5a.5.5 0 0 1 .5-.5h9.086A3.414 3.414 0 0 1 20 3.414v1.1a.486.486 0 0 1-.486.486H11ZM9.977 6c-.066.215-.26.351-.46.291l-.175-.027-.44-.068c.018-.065.034-.13.048-.196h1.027Zm-1.415.914.35.296 1.884 1.59c.11.232.036.528-.164.647l-.84.503c-.192.115-.425.022-.521-.208L7.315 7.864a2.49 2.49 0 0 0 1.247-.95Zm-.766-.89L7.806 6h-.171l.16.025ZM7.48 6l.232.197A1.4 1.4 0 0 1 7 6.805V6.5a.5.5 0 0 1 .48-.5ZM5.685 7.864 3.73 9.743c-.096.23-.33.323-.521.208l-.84-.503c-.2-.12-.275-.415-.164-.647L4.088 7.21l.35-.296a2.515 2.515 0 0 0 1.247.95ZM4.098 6.196l-.44.068-.175.027c-.2.06-.394-.076-.46-.291H4.05c.014.066.03.131.048.196Zm1.19 0a1.4 1.4 0 0 0 .712.61V6h-.48l-.232.197ZM5.365 6l-.16.025A1.357 1.357 0 0 1 5.194 6h.17Z" clip-rule="evenodd"/>
  <path fill="#fff" fill-rule="evenodd" d="m4.722 3.743-1.16-.693C3.305 2.895 3 3.12 3 3.466V5.84c0 .303.238.525.483.451l.615-.095a2.5 2.5 0 0 1 .624-2.453Zm.566 2.454.268-.226-.352.054A1.398 1.398 0 0 1 5.72 4.34l.176.106c.132.079.215.24.215.416l.389.25.389-.25c0-.176.083-.337.215-.416l.176-.106a1.398 1.398 0 0 1 .515 1.685l-.35-.054.267.226a1.4 1.4 0 0 1-2.424 0Zm-.85.717L2.204 8.801c-.11.232-.036.528.164.647l.84.503c.192.115.425.022.521-.208l1.956-1.879a2.49 2.49 0 0 1-1.247-.95Zm2.877.95L9.27 9.743c.096.23.33.323.521.208l.84-.503c.2-.12.275-.415.164-.647L8.562 6.914a2.515 2.515 0 0 1-1.247.95Zm1.587-1.668.615.095c.245.074.483-.148.483-.451V3.466c0-.346-.304-.571-.563-.416l-1.159.693a2.5 2.5 0 0 1 .624 2.453Z" clip-rule="evenodd"/>
  <path fill="#fff" d="M5.512 4.512a1.398 1.398 0 1 1 1.976 1.976 1.398 1.398 0 0 1-1.976-1.976Z"/>
</svg>
