<svg width="16" height="16" viewBox="0 0 16 16" fill="none" xmlns="http://www.w3.org/2000/svg">
<g clip-path="url(#clip0_400_1297)">
<mask id="mask0_400_1297" style="mask-type:alpha" maskUnits="userSpaceOnUse" x="0" y="0" width="16" height="16">
<path d="M8 16C0.261516 16 0.0914415 11.2271 0.0914415 11.2271C0.0914415 11.2271 -0.541469 5.69245 1.52292 3.2C3.29095 1.06536 5.15317 0 8 0C10.8468 0 12.7091 1.06536 14.4771 3.2C16.5415 5.69245 15.9086 11.2271 15.9086 11.2271C15.9086 11.2271 15.7385 16 8 16Z" fill="black"/>
</mask>
<g mask="url(#mask0_400_1297)">
<path d="M8 16C6.06538 16 6.02286 14.8068 6.02286 14.8068C6.02286 14.8068 5.86463 13.4231 6.38073 12.8C6.82274 12.2663 7.28829 12 8 12C8.71171 12 9.17726 12.2663 9.61927 12.8C10.1354 13.4231 9.97714 14.8068 9.97714 14.8068C9.97714 14.8068 9.93462 16 8 16Z" stroke="black" stroke-width="1.5"/>
<path d="M12.0482 10C13.3384 11.5578 12.9428 15.0169 12.9428 15.0169C12.9428 15.0169 12.8366 18 8 18C3.16345 18 3.05715 15.0169 3.05715 15.0169C3.05715 15.0169 2.66158 11.5578 3.95182 10C5.05684 8.66585 6.22073 8 8 8C8.81057 8 9.49342 8.13819 10.1012 8.4148" stroke="black" stroke-width="1.5" stroke-linecap="round"/>
<path d="M2.78097 5.88587C2.34911 6.26629 1.93347 6.70432 1.52292 7.2C-0.541469 9.69245 0.0914415 15.2271 0.0914415 15.2271C0.0914415 15.2271 0.261517 20 8 20C15.7385 20 15.9086 15.2271 15.9086 15.2271C15.9086 15.2271 16.5415 9.69245 14.4771 7.2C12.7091 5.06536 10.8468 4 8 4C6.941 4 6.01825 4.14742 5.18591 4.44247" stroke="black" stroke-width="1.5" stroke-linecap="round"/>
<path d="M0.83661 11.1421L0.836585 11.1419L0.836413 11.1404L0.835388 11.131L0.831085 11.0894C0.827315 11.0519 0.821881 10.995 0.815585 10.9209C0.802987 10.7727 0.786974 10.5559 0.773923 10.287C0.747766 9.74818 0.733807 9.00632 0.781738 8.19231C0.880575 6.51381 1.23385 4.72479 2.10052 3.67841C2.94175 2.66275 3.77335 1.9404 4.69844 1.46724C5.6186 0.996596 6.67527 0.75 8 0.75C9.17576 0.75 10.1384 0.944342 10.9803 1.31459C12.038 1.77972 12.9633 2.54808 13.8995 3.67841C14.7661 4.72479 15.1194 6.51381 15.2183 8.19231C15.2662 9.00632 15.2522 9.74818 15.2261 10.287C15.213 10.5559 15.197 10.7727 15.1844 10.9209C15.1781 10.995 15.1727 11.0519 15.1689 11.0894L15.1646 11.131L15.1636 11.1404L15.1634 11.1419L15.1634 11.1421L15.1634 11.1422L15.1634 11.1423L15.1601 11.1711L15.1592 11.1953C15.159 11.1981 15.1586 11.2043 15.1578 11.2137C15.1559 11.2345 15.1521 11.2706 15.1446 11.3199C15.1296 11.4187 15.1003 11.569 15.0439 11.7535C14.931 12.1225 14.7113 12.6238 14.2837 13.1291C13.4496 14.1147 11.7057 15.25 8 15.25C4.29425 15.25 2.55045 14.1147 1.71629 13.1291C1.28872 12.6238 1.069 12.1225 0.956133 11.7535C0.899681 11.569 0.87037 11.4187 0.855408 11.3199C0.847943 11.2706 0.844104 11.2345 0.842243 11.2137C0.841395 11.2043 0.840961 11.198 0.840782 11.1953L0.83992 11.1711L0.836626 11.1423L0.836613 11.1422L0.83661 11.1421ZM15.1593 11.1942C15.1593 11.1933 15.1593 11.1934 15.1593 11.1946L15.1593 11.1942ZM0.840714 11.1942L0.840738 11.1946L0.840714 11.1942Z" stroke="black" stroke-width="1.5"/>
</g>
</g>
<defs>
<clipPath id="clip0_400_1297">
<rect width="16" height="16" fill="white"/>
</clipPath>
</defs>
</svg>
