<svg width="608" height="273" viewBox="0 0 608 273" fill="none" xmlns="http://www.w3.org/2000/svg">
<path d="M607.5 272.5H608V272V0V-0.5H607.5H0.5H0V0V142.833C0 159.304 5.31023 171.378 15.4213 180.183C25.5076 188.966 40.3211 194.451 59.2444 197.877C91.6157 203.738 136.236 203.605 190.323 203.445C199.454 203.418 208.855 203.39 218.512 203.39C302.117 203.39 326.372 212.455 340.759 221.438C343.048 222.867 345.075 224.286 347.064 225.677C348.225 226.49 349.374 227.293 350.553 228.085C353.737 230.22 357.092 232.222 361.385 233.939C369.968 237.371 382.245 239.639 404.357 239.639C433.037 239.639 452.817 241.691 468.161 244.764C483.445 247.824 494.342 251.9 505.282 255.991L505.407 256.038C527.419 264.27 549.562 272.5 607.5 272.5Z" fill="white" fill-opacity="0.33" style="mix-blend-mode:overlay"/>
<path d="M607.5 272.5H608V272V0V-0.5H607.5H0.5H0V0V142.833C0 159.304 5.31023 171.378 15.4213 180.183C25.5076 188.966 40.3211 194.451 59.2444 197.877C91.6157 203.738 136.236 203.605 190.323 203.445C199.454 203.418 208.855 203.39 218.512 203.39C302.117 203.39 326.372 212.455 340.759 221.438C343.048 222.867 345.075 224.286 347.064 225.677C348.225 226.49 349.374 227.293 350.553 228.085C353.737 230.22 357.092 232.222 361.385 233.939C369.968 237.371 382.245 239.639 404.357 239.639C433.037 239.639 452.817 241.691 468.161 244.764C483.445 247.824 494.342 251.9 505.282 255.991L505.407 256.038C527.419 264.27 549.562 272.5 607.5 272.5Z" stroke="url(#paint0_linear_1198_4598)" style="mix-blend-mode:overlay"/>
<defs>
<linearGradient id="paint0_linear_1198_4598" x1="304" y1="0" x2="304" y2="272" gradientUnits="userSpaceOnUse">
<stop/>
<stop offset="1" stop-opacity="0"/>
</linearGradient>
</defs>
</svg>
